<svg version="1.2" xmlns="http://www.w3.org/2000/svg" viewBox="0 0 20 20" width="20" height="20">
	<title>check-svg</title>
	<style>
		.s0 { fill: #000000 } 
	</style>
	<path id="Layer" class="s0" d="m16 18.8l-12-0.1c-0.7 0-1.4-0.2-1.9-0.8-0.6-0.5-0.9-1.2-0.9-1.9v-12c0-0.7 0.3-1.4 0.9-1.9 0.5-0.6 1.2-0.9 1.9-0.9h8.9q0.3 0.1 0.5 0.3 0.2 0.2 0.2 0.5 0 0.3-0.2 0.5-0.2 0.2-0.5 0.2h-8.9c-0.3 0-0.6 0.2-0.9 0.4-0.2 0.3-0.3 0.6-0.3 0.9v12c0 0.3 0.1 0.6 0.3 0.9 0.3 0.2 0.6 0.3 0.9 0.3h12c0.3 0 0.6-0.1 0.9-0.3 0.2-0.3 0.3-0.6 0.3-0.9v-7.7q0.1-0.3 0.3-0.5 0.2-0.3 0.5-0.3 0.3 0 0.5 0.3 0.2 0.2 0.3 0.5v7.7c0 0.7-0.3 1.4-0.9 1.9-0.5 0.6-1.2 0.8-1.9 0.8z"/>
	<path id="Layer" class="s0" d="m8.5 13.3q-0.3-0.1-0.5-0.3l-3-3q-0.1-0.2-0.1-0.5 0.1-0.2 0.2-0.4 0.2-0.1 0.4-0.2 0.3 0 0.5 0.1l2.5 2.5 8.5-8.5q0.2-0.1 0.5-0.1 0.2 0.1 0.4 0.2 0.1 0.2 0.2 0.4 0 0.3-0.1 0.5l-9 9q-0.2 0.2-0.5 0.2z"/>
</svg>